<?xml version="1.0" encoding="UTF-8" standalone="no"?><!DOCTYPE svg PUBLIC "-//W3C//DTD SVG 1.1//EN" "http://www.w3.org/Graphics/SVG/1.1/DTD/svg11.dtd"><svg width="100%" height="100%" viewBox="0 0 147 42" version="1.1" xmlns="http://www.w3.org/2000/svg" xmlns:xlink="http://www.w3.org/1999/xlink" xml:space="preserve" xmlns:serif="http://www.serif.com/" style="fill-rule:evenodd;clip-rule:evenodd;stroke-linejoin:round;stroke-miterlimit:1.41421;"><g><path d="M33.752,35.6c-2.604,2.475 -5.946,4.135 -9.988,4.889l0,-18.96c-0.73,-0.037 -1.32,-0.066 -2.169,-0.11l0,19.154c-0.405,0.11 -0.561,0.18 -0.721,0.19c-4.484,0.3 -4.485,0.299 -4.485,-4.113l0,-15.099l-2.08,0l0,18.016c-5.084,0.101 -12.163,-7.317 -13.771,-14.246c-2.195,-9.458 2.468,-18.922 11.348,-23.033c2.548,-1.179 5.4,-1.738 8.242,-1.738c5.834,0 11.631,2.351 14.709,6.511c-1.102,1.077 -2.212,2.162 -3.43,3.352c-3.685,-3.771 -8.236,-5.468 -13.537,-4.713c-3.882,0.552 -7.081,2.468 -9.536,5.546c-4.598,5.767 -4.332,14.794 0.853,19.55l0,-14.412l19.63,0l0,16.65c0.474,-0.367 0.883,-0.683 1.253,-0.969l6.055,-6.202c1.234,-1.253 2.116,-2.255 2.642,-3.001c0.527,-0.748 0.792,-1.469 0.792,-2.166c0,-0.697 -0.229,-1.279 -0.687,-1.747c-0.458,-0.468 -1.046,-0.702 -1.762,-0.702c-1.314,0 -2.559,0.936 -3.734,2.807l-3.734,-2.211c0.976,-1.512 2.047,-2.657 3.212,-3.433c1.165,-0.776 2.649,-1.165 4.45,-1.165c1.802,0 3.385,0.572 4.749,1.717c1.365,1.145 2.047,2.703 2.047,4.674c0,1.075 -0.274,2.106 -0.822,3.092c-0.548,0.986 -1.559,2.245 -3.032,3.778l-3.763,3.913l8.244,0l0,4.181l-10.975,0Z" style="fill:#fff;"/><g><path d="M69.864,27.11c-0.554,0.24 -1.495,0.44 -2.344,0.44c-2.51,0 -3.986,-1.7 -3.986,-4.4c0,-3 1.735,-4.46 3.968,-4.46c0.996,0 1.79,0.24 2.362,0.5l0.572,-2.42c-0.498,-0.28 -1.606,-0.6 -3.064,-0.6c-3.764,0 -6.791,2.56 -6.791,7.16c0,3.84 2.215,6.74 6.515,6.74c1.513,0 2.676,-0.3 3.192,-0.58l-0.424,-2.38Z" style="fill:#f2f2f2;fill-rule:nonzero;"/><path d="M82.607,29.87l2.75,0l-0.683,-13.48l-3.673,0l-1.328,4.48c-0.406,1.5 -0.831,3.28 -1.181,4.84l-0.056,0c-0.277,-1.58 -0.664,-3.26 -1.052,-4.82l-1.218,-4.5l-3.746,0l-0.794,13.48l2.602,0l0.222,-5.12c0.092,-1.68 0.148,-3.76 0.221,-5.58l0.037,0c0.296,1.76 0.72,3.68 1.126,5.26l1.329,5.22l2.196,0l1.513,-5.26c0.48,-1.58 0.997,-3.5 1.384,-5.22l0.056,0c0,1.96 0.055,3.92 0.11,5.54l0.185,5.16Z" style="fill:#f2f2f2;fill-rule:nonzero;"/><path d="M90.303,29.25c0.701,0.42 2.103,0.82 3.524,0.82c3.415,0 5.02,-1.92 5.02,-4.18c0,-1.9 -1.033,-3.14 -3.229,-4.02c-1.606,-0.66 -2.307,-1.04 -2.307,-1.9c0,-0.7 0.59,-1.3 1.808,-1.3c1.218,0 2.104,0.38 2.602,0.64l0.628,-2.46c-0.738,-0.36 -1.772,-0.68 -3.174,-0.68c-2.935,0 -4.706,1.76 -4.706,4.06c0,1.96 1.347,3.2 3.414,3.98c1.495,0.58 2.085,1.06 2.085,1.9c0,0.88 -0.683,1.46 -1.974,1.46c-1.2,0 -2.363,-0.42 -3.119,-0.84l-0.572,2.52Z" style="fill:#f2f2f2;fill-rule:nonzero;"/><path d="M106.368,33.83l2.805,0l0,-10.8c0,-1.02 0.037,-2 0.055,-2.94l-2.713,0l-0.074,1.14l-0.037,0c-0.498,-0.9 -1.347,-1.36 -2.509,-1.36c-1.92,0 -3.987,1.74 -3.987,5.24c0,3.12 1.79,4.98 3.747,4.98c1.199,0 2.104,-0.52 2.676,-1.44l0.037,0l0,5.18Zm0,-8.18c0,0.2 -0.019,0.46 -0.074,0.66c-0.185,0.8 -0.831,1.38 -1.624,1.38c-1.181,0 -1.901,-1.06 -1.901,-2.7c0,-1.58 0.646,-2.76 1.938,-2.76c0.849,0 1.458,0.68 1.605,1.46c0.037,0.16 0.056,0.34 0.056,0.5l0,1.46Z" style="fill:#f2f2f2;fill-rule:nonzero;"/><path d="M119.683,20.09l-2.824,0l0,5.82c0,0.24 -0.018,0.48 -0.092,0.66c-0.185,0.48 -0.628,1.06 -1.403,1.06c-0.978,0 -1.402,-0.86 -1.402,-2.28l0,-5.26l-2.824,0l0,5.74c0,3.02 1.347,4.26 3.174,4.26c1.624,0 2.473,-1 2.824,-1.6l0.055,0l0.129,1.38l2.437,0c-0.037,-0.82 -0.074,-1.86 -0.074,-3.14l0,-6.64Z" style="fill:#f2f2f2;fill-rule:nonzero;"/><path d="M129.362,29.87c-0.092,-0.54 -0.129,-1.44 -0.129,-2.38l0,-3.4c0,-2.3 -0.96,-4.22 -3.968,-4.22c-1.642,0 -2.879,0.48 -3.506,0.86l0.517,1.96c0.59,-0.4 1.568,-0.74 2.491,-0.74c1.384,0 1.642,0.74 1.642,1.26l0,0.14c-3.192,-0.02 -5.296,1.2 -5.296,3.74c0,1.56 1.089,3 2.916,3c1.07,0 1.993,-0.42 2.583,-1.2l0.056,0l0.166,0.98l2.528,0Zm-2.86,-3.56c0,0.18 -0.019,0.36 -0.056,0.52c-0.184,0.62 -0.756,1.12 -1.458,1.12c-0.627,0 -1.107,-0.38 -1.107,-1.16c0,-1.18 1.144,-1.56 2.621,-1.54l0,1.06Z" style="fill:#f2f2f2;fill-rule:nonzero;"/><path d="M131.217,29.87l2.805,0l0,-4.96c0,-0.24 0.019,-0.48 0.055,-0.68c0.185,-0.94 0.886,-1.54 1.92,-1.54c0.314,0 0.553,0.04 0.756,0.08l0,-2.86c-0.203,-0.04 -0.332,-0.04 -0.59,-0.04c-0.868,0 -1.975,0.6 -2.436,2.02l-0.074,0l-0.092,-1.8l-2.418,0c0.037,0.84 0.074,1.78 0.074,3.22l0,6.56Z" style="fill:#f2f2f2;fill-rule:nonzero;"/><path d="M145.972,25.95c0.037,-0.22 0.092,-0.68 0.092,-1.2c0,-2.42 -1.107,-4.88 -4.023,-4.88c-3.138,0 -4.559,2.74 -4.559,5.22c0,3.06 1.754,4.98 4.817,4.98c1.218,0 2.344,-0.2 3.267,-0.6l-0.369,-2.06c-0.757,0.26 -1.532,0.4 -2.492,0.4c-1.31,0 -2.454,-0.6 -2.547,-1.86l5.814,0Zm-5.832,-2.08c0.074,-0.82 0.554,-1.98 1.735,-1.98c1.291,0 1.587,1.24 1.587,1.98l-3.322,0Z" style="fill:#f2f2f2;fill-rule:nonzero;"/></g></g></svg>