<?xml version="1.0" encoding="UTF-8" standalone="no"?><!DOCTYPE svg PUBLIC "-//W3C//DTD SVG 1.1//EN" "http://www.w3.org/Graphics/SVG/1.1/DTD/svg11.dtd"><svg width="100%" height="100%" viewBox="0 0 165 43" version="1.1" xmlns="http://www.w3.org/2000/svg" xmlns:xlink="http://www.w3.org/1999/xlink" xml:space="preserve" xmlns:serif="http://www.serif.com/" style="fill-rule:evenodd;clip-rule:evenodd;stroke-linejoin:round;stroke-miterlimit:1.41421;"><g><g><g><path d="M11.886,1.925c-8.88,4.11 -13.543,13.574 -11.348,23.033c1.608,6.928 8.687,14.347 13.771,14.245l0,-18.015l2.08,0l0,15.099c0,4.412 0.001,4.413 4.485,4.113c0.16,-0.01 0.316,-0.081 0.721,-0.191l0,-19.153c0.849,0.044 1.439,0.073 2.169,0.11l0,18.96c4.549,-0.849 8.212,-2.845 10.933,-5.859c-1.2,-1.316 -2.243,-2.459 -3.286,-3.602c-0.729,0.564 -1.485,1.147 -2.594,2.006l0,-16.65l-19.63,0l0,7.194l0,7.218c-5.185,-4.757 -5.451,-13.783 -0.853,-19.55c2.455,-3.078 5.654,-4.995 9.536,-5.547c5.301,-0.754 9.852,0.943 13.537,4.714c1.218,-1.19 2.328,-2.275 3.43,-3.353c-3.078,-4.159 -8.875,-6.51 -14.709,-6.51c-2.842,0 -5.694,0.558 -8.242,1.738Z" style="fill:url(#_Linear1);fill-rule:nonzero;"/><path d="M32.854,15.047c-1.165,0.776 -2.236,1.92 -3.212,3.433l3.734,2.211c1.175,-1.871 2.42,-2.807 3.734,-2.807c0.716,0 1.304,0.234 1.762,0.701c0.458,0.469 0.687,1.051 0.687,1.747c0,0.697 -0.265,1.419 -0.792,2.166c-0.526,0.747 -1.408,1.748 -2.642,3.002l-6.124,6.273l0,3.464l14.726,0l0,-4.181l-8.244,0l3.763,-3.913c1.473,-1.533 2.484,-2.792 3.032,-3.779c0.548,-0.985 0.822,-2.016 0.822,-3.091c0,-1.971 -0.682,-3.529 -2.047,-4.674c-1.364,-1.145 -2.947,-1.718 -4.749,-1.718c-1.801,0 -3.285,0.389 -4.45,1.166Z" style="fill:url(#_Linear2);fill-rule:nonzero;"/></g><g><path d="M77.652,7.153l-15.558,0l0,2.12l15.558,0l0,-2.12Zm-8.102,7.68l0,1.24l-4.134,0c0.019,-0.42 0.037,-0.84 0.037,-1.24l4.097,0Zm4.817,-2.96l0,1.24l-8.914,0l0,-1.24l8.914,0Zm3.709,6.06l0,-1.86l-6.348,0l0,-1.24l4.78,0l0,-4.68l-13.196,0l0,4.44c0,2.66 -0.203,6.28 -2.27,8.78c0.536,0.26 1.477,0.9 1.883,1.32c1.458,-1.82 2.104,-4.36 2.362,-6.76l3.156,0c-0.295,2.42 -1.071,4.14 -4.466,5.12c0.443,0.44 0.996,1.3 1.199,1.86c2.713,-0.9 4.06,-2.26 4.78,-4.04l4.263,0c-0.129,1.22 -0.277,1.8 -0.48,2c-0.166,0.16 -0.35,0.2 -0.646,0.2c-0.35,0 -1.162,-0.02 -1.993,-0.12c0.314,0.56 0.536,1.38 0.572,1.98c0.979,0.04 1.92,0.02 2.436,-0.02c0.573,-0.06 1.052,-0.2 1.458,-0.66c0.462,-0.5 0.683,-1.74 0.886,-4.36c0.037,-0.28 0.056,-0.84 0.056,-0.84l-6.035,0c0.074,-0.36 0.129,-0.74 0.166,-1.12l7.437,0Z" style="fill:#58595b;fill-rule:nonzero;"/><path d="M94.927,18.013l0,1.28l-3.876,0l0,1.8l3.876,0l0,1.52l-5.444,0l0,1.92l12.955,0l0,-1.92l-5.37,0l0,-1.52l3.912,0l0,-1.8l-3.912,0l0,-1.28l4.466,0l0,-1.86l-4.466,0l0,-1.32l-2.141,0l0,1.32l-2.049,0c0.148,-0.34 0.277,-0.7 0.388,-1.04l-1.919,-0.5c-0.443,1.42 -1.237,2.78 -2.178,3.66c0.461,0.3 1.236,0.9 1.606,1.26c0.387,-0.42 0.775,-0.94 1.125,-1.52l3.027,0Zm-3.396,-5.32c1.089,-0.26 2.215,-0.58 3.267,-0.94c0.978,0.32 1.882,0.64 2.676,0.94l-5.943,0Zm5.075,-3.24c-0.535,0.26 -1.144,0.52 -1.79,0.74c-0.886,-0.26 -1.79,-0.52 -2.657,-0.74l4.447,0Zm5.98,3.24l-3.765,0l0.923,-0.84c-0.776,-0.3 -1.717,-0.64 -2.75,-0.98c0.793,-0.36 1.513,-0.76 2.122,-1.18l-0.406,-0.24l2.99,0l0,-1.86l-6.459,0l0,-1.34l-2.197,0l0,1.34l-6.145,0l0,1.86l3.488,0l-0.96,0.76c0.905,0.22 1.864,0.48 2.842,0.76c-1.199,0.3 -2.417,0.54 -3.525,0.72c0.167,0.24 0.406,0.64 0.591,1l-2.307,0l0,3.34c0,2.22 -0.147,5.38 -1.624,7.62c0.462,0.28 1.366,1.06 1.716,1.5c1.717,-2.52 2.049,-6.46 2.049,-9.1l0,-1.44l13.417,0l0,-1.92Z" style="fill:#58595b;fill-rule:nonzero;"/><path d="M114.416,16.913l0,-1.52l2.953,0l0,1.52l-2.953,0Zm8.268,-1.52l0,1.52l-3.026,0l0,-1.52l3.026,0Zm-6.514,-5.68l4.669,0l0,1.1l-4.669,0l0,-1.1Zm10.777,10.2l-7.289,0l0,-1.18l5.388,0l0,-5.18l-5.388,0l0,-0.98l3.451,0l0,-2.86l3.525,0l0,-2.02l-3.525,0l0,-1.46l-2.27,0l0,1.46l-4.669,0l0,-1.46l-2.16,0l0,1.46l-3.506,0l0,2.02l3.506,0l0,2.86l3.359,0l0,0.98l-5.167,0l0,5.18l5.167,0l0,1.18l-7.16,0l0,2.16l7.16,0l0,2.86l2.289,0l0,-2.86l7.289,0l0,-2.16Z" style="fill:#58595b;fill-rule:nonzero;"/><path d="M140.162,10.153c-0.147,0.68 -0.443,1.6 -0.683,2.2l1.218,0.28l-3.617,0l0.923,-0.28c-0.074,-0.6 -0.314,-1.52 -0.627,-2.2l2.786,0Zm-0.24,7.98l3.045,0l0,-2l-3.045,0l0,-1.54l3.211,0l0,-1.96l-1.864,0c0.259,-0.6 0.554,-1.4 0.886,-2.26l-1.07,-0.22l1.901,0l0,-1.94l-3.064,0l0,-1.82l-2.122,0l0,1.82l-3.1,0l0,1.94l2.067,0l-1.126,0.28c0.258,0.66 0.48,1.54 0.553,2.2l-1.697,0l0,1.96l3.303,0l0,1.54l-3.248,0l0,2l2.805,0c-0.849,1.5 -2.122,3 -3.322,3.86c0.462,0.38 1.089,1.16 1.421,1.68c0.794,-0.7 1.624,-1.7 2.344,-2.82l0,4.02l2.122,0l0,-4.26c0.535,0.56 1.052,1.16 1.347,1.56l1.274,-1.7c-0.425,-0.36 -1.956,-1.68 -2.621,-2.18l0,-0.16Zm11.59,-5.32l-5.758,0l0,-2.8c1.938,-0.44 4.042,-1.06 5.666,-1.84l-1.754,-1.74c-1.125,0.66 -2.934,1.3 -4.687,1.76l-1.292,-0.4l0,6.94c0,2.76 -0.221,6.16 -2.344,8.6c0.499,0.28 1.292,1.1 1.569,1.62c2.436,-2.74 2.824,-6.96 2.842,-9.94l1.882,0l0,9.78l2.123,0l0,-9.78l1.753,0l0,-2.2Z" style="fill:#58595b;fill-rule:nonzero;"/><path d="M62.858,39.168l0.975,0l0,-7.2l2.281,0l0,-0.888l-5.526,0l0,0.888l2.27,0l0,7.2Z" style="fill:#808285;fill-rule:nonzero;"/><path d="M66.773,39.168l0.974,0l0,-3.504c0,-0.204 0.011,-0.36 0.067,-0.504c0.177,-0.576 0.675,-1.056 1.306,-1.056c0.919,0 1.24,0.792 1.24,1.728l0,3.336l0.975,0l0,-3.456c0,-2.004 -1.152,-2.484 -1.872,-2.484c-0.365,0 -0.708,0.12 -0.996,0.3c-0.299,0.18 -0.543,0.444 -0.698,0.744l-0.022,0l0,-3.624l-0.974,0l0,8.52Z" style="fill:#808285;fill-rule:nonzero;"/><path d="M77.226,36.456c0.011,-0.108 0.033,-0.276 0.033,-0.492c0,-1.068 -0.465,-2.736 -2.215,-2.736c-1.561,0 -2.513,1.38 -2.513,3.132c0,1.752 0.985,2.928 2.635,2.928c0.853,0 1.439,-0.192 1.783,-0.36l-0.166,-0.756c-0.366,0.168 -0.787,0.3 -1.484,0.3c-0.975,0 -1.816,-0.588 -1.838,-2.016l3.765,0Zm-3.754,-0.756c0.077,-0.732 0.509,-1.716 1.495,-1.716c1.096,0 1.362,1.044 1.351,1.716l-2.846,0Z" style="fill:#808285;fill-rule:nonzero;"/><path d="M80.846,39.168l0.964,0l0,-3.66l2.823,0l0,-0.864l-2.823,0l0,-2.688l3.056,0l0,-0.876l-4.02,0l0,8.088Z" style="fill:#808285;fill-rule:nonzero;"/><path d="M90.344,33.36l-0.974,0l0,3.564c0,0.192 -0.033,0.384 -0.089,0.54c-0.177,0.468 -0.631,0.96 -1.284,0.96c-0.886,0 -1.196,-0.744 -1.196,-1.848l0,-3.216l-0.975,0l0,3.396c0,2.04 1.008,2.544 1.85,2.544c0.952,0 1.517,-0.612 1.771,-1.08l0.022,0l0.056,0.948l0.863,0c-0.033,-0.456 -0.044,-0.984 -0.044,-1.584l0,-4.224Z" style="fill:#808285;fill-rule:nonzero;"/><path d="M92.182,31.968l0,1.392l-0.83,0l0,0.804l0.83,0l0,3.168c0,0.684 0.1,1.2 0.377,1.512c0.232,0.288 0.598,0.444 1.052,0.444c0.376,0 0.675,-0.06 0.863,-0.144l-0.044,-0.792c-0.122,0.036 -0.31,0.072 -0.565,0.072c-0.542,0 -0.73,-0.408 -0.73,-1.128l0,-3.132l1.395,0l0,-0.804l-1.395,0l0,-1.668l-0.953,0.276Z" style="fill:#808285;fill-rule:nonzero;"/><path d="M100.11,33.36l-0.974,0l0,3.564c0,0.192 -0.033,0.384 -0.089,0.54c-0.177,0.468 -0.631,0.96 -1.284,0.96c-0.886,0 -1.196,-0.744 -1.196,-1.848l0,-3.216l-0.974,0l0,3.396c0,2.04 1.007,2.544 1.849,2.544c0.952,0 1.517,-0.612 1.772,-1.08l0.022,0l0.055,0.948l0.864,0c-0.033,-0.456 -0.045,-0.984 -0.045,-1.584l0,-4.224Z" style="fill:#808285;fill-rule:nonzero;"/><path d="M101.727,39.168l0.963,0l0,-3.096c0,-0.18 0.023,-0.348 0.045,-0.492c0.133,-0.792 0.62,-1.356 1.306,-1.356c0.133,0 0.233,0.012 0.332,0.036l0,-0.996c-0.088,-0.024 -0.166,-0.036 -0.276,-0.036c-0.654,0 -1.24,0.492 -1.484,1.272l-0.044,0l-0.034,-1.14l-0.852,0c0.033,0.54 0.044,1.128 0.044,1.812l0,3.996Z" style="fill:#808285;fill-rule:nonzero;"/><path d="M109.517,36.456c0.011,-0.108 0.033,-0.276 0.033,-0.492c0,-1.068 -0.465,-2.736 -2.215,-2.736c-1.561,0 -2.513,1.38 -2.513,3.132c0,1.752 0.985,2.928 2.635,2.928c0.853,0 1.44,-0.192 1.783,-0.36l-0.166,-0.756c-0.365,0.168 -0.786,0.3 -1.484,0.3c-0.974,0 -1.816,-0.588 -1.838,-2.016l3.765,0Zm-3.754,-0.756c0.078,-0.732 0.509,-1.716 1.495,-1.716c1.096,0 1.362,1.044 1.351,1.716l-2.846,0Z" style="fill:#808285;fill-rule:nonzero;"/><path d="M115.374,33.228c-1.483,0 -2.657,1.14 -2.657,3.084c0,1.836 1.118,2.988 2.569,2.988c1.295,0 2.668,-0.936 2.668,-3.084c0,-1.776 -1.04,-2.988 -2.58,-2.988Zm-0.022,0.792c1.152,0 1.606,1.248 1.606,2.232c0,1.308 -0.698,2.256 -1.628,2.256c-0.952,0 -1.628,-0.96 -1.628,-2.232c0,-1.104 0.499,-2.256 1.65,-2.256Z" style="fill:#808285;fill-rule:nonzero;"/><path d="M120.246,39.168l0,-5.004l1.296,0l0,-0.804l-1.296,0l0,-0.312c0,-0.888 0.211,-1.68 1.041,-1.68c0.277,0 0.476,0.06 0.62,0.132l0.133,-0.816c-0.188,-0.084 -0.487,-0.168 -0.83,-0.168c-0.454,0 -0.941,0.156 -1.307,0.54c-0.454,0.468 -0.62,1.212 -0.62,2.028l0,0.276l-0.753,0l0,0.804l0.753,0l0,5.004l0.963,0Z" style="fill:#808285;fill-rule:nonzero;"/><path d="M124.797,39.168l0.964,0l0,-3.24c0.221,0.06 0.487,0.072 0.775,0.072c0.941,0 1.772,-0.3 2.281,-0.888c0.376,-0.42 0.576,-0.996 0.576,-1.728c0,-0.72 -0.244,-1.308 -0.654,-1.692c-0.443,-0.432 -1.14,-0.672 -2.092,-0.672c-0.775,0 -1.384,0.072 -1.85,0.156l0,7.992Zm0.964,-7.236c0.166,-0.048 0.487,-0.084 0.908,-0.084c1.063,0 1.76,0.516 1.76,1.584c0,1.116 -0.708,1.728 -1.871,1.728c-0.321,0 -0.587,-0.024 -0.797,-0.084l0,-3.144Z" style="fill:#808285;fill-rule:nonzero;"/><path d="M130.517,39.168l0.963,0l0,-3.096c0,-0.18 0.022,-0.348 0.044,-0.492c0.133,-0.792 0.62,-1.356 1.307,-1.356c0.133,0 0.232,0.012 0.332,0.036l0,-0.996c-0.089,-0.024 -0.166,-0.036 -0.277,-0.036c-0.653,0 -1.24,0.492 -1.484,1.272l-0.044,0l-0.033,-1.14l-0.853,0c0.034,0.54 0.045,1.128 0.045,1.812l0,3.996Z" style="fill:#808285;fill-rule:nonzero;"/><path d="M136.269,33.228c-1.484,0 -2.658,1.14 -2.658,3.084c0,1.836 1.119,2.988 2.569,2.988c1.296,0 2.669,-0.936 2.669,-3.084c0,-1.776 -1.041,-2.988 -2.58,-2.988Zm-0.022,0.792c1.151,0 1.605,1.248 1.605,2.232c0,1.308 -0.697,2.256 -1.627,2.256c-0.953,0 -1.628,-0.96 -1.628,-2.232c0,-1.104 0.498,-2.256 1.65,-2.256Z" style="fill:#808285;fill-rule:nonzero;"/><path d="M140.078,41.544l0.963,0l0,-3.156l0.023,0c0.321,0.576 0.941,0.912 1.649,0.912c1.263,0 2.436,-1.032 2.436,-3.12c0,-1.764 -0.974,-2.952 -2.27,-2.952c-0.874,0 -1.505,0.42 -1.904,1.128l-0.022,0l-0.044,-0.996l-0.875,0c0.022,0.552 0.044,1.152 0.044,1.896l0,6.288Zm0.963,-5.736c0,-0.144 0.034,-0.3 0.067,-0.432c0.188,-0.792 0.808,-1.308 1.473,-1.308c1.029,0 1.594,0.996 1.594,2.16c0,1.332 -0.598,2.244 -1.628,2.244c-0.697,0 -1.284,-0.504 -1.461,-1.236c-0.022,-0.132 -0.045,-0.276 -0.045,-0.432l0,-0.996Z" style="fill:#808285;fill-rule:nonzero;"/><path d="M150.686,36.456c0.011,-0.108 0.033,-0.276 0.033,-0.492c0,-1.068 -0.465,-2.736 -2.214,-2.736c-1.562,0 -2.514,1.38 -2.514,3.132c0,1.752 0.985,2.928 2.635,2.928c0.853,0 1.44,-0.192 1.783,-0.36l-0.166,-0.756c-0.365,0.168 -0.786,0.3 -1.484,0.3c-0.974,0 -1.816,-0.588 -1.838,-2.016l3.765,0Zm-3.754,-0.756c0.078,-0.732 0.51,-1.716 1.495,-1.716c1.096,0 1.362,1.044 1.351,1.716l-2.846,0Z" style="fill:#808285;fill-rule:nonzero;"/><path d="M151.926,39.168l0.963,0l0,-3.096c0,-0.18 0.023,-0.348 0.045,-0.492c0.133,-0.792 0.62,-1.356 1.306,-1.356c0.133,0 0.233,0.012 0.332,0.036l0,-0.996c-0.088,-0.024 -0.166,-0.036 -0.276,-0.036c-0.654,0 -1.241,0.492 -1.484,1.272l-0.044,0l-0.034,-1.14l-0.852,0c0.033,0.54 0.044,1.128 0.044,1.812l0,3.996Z" style="fill:#808285;fill-rule:nonzero;"/><path d="M156.045,31.968l0,1.392l-0.83,0l0,0.804l0.83,0l0,3.168c0,0.684 0.1,1.2 0.377,1.512c0.232,0.288 0.598,0.444 1.052,0.444c0.376,0 0.675,-0.06 0.863,-0.144l-0.044,-0.792c-0.122,0.036 -0.31,0.072 -0.565,0.072c-0.542,0 -0.731,-0.408 -0.731,-1.128l0,-3.132l1.396,0l0,-0.804l-1.396,0l0,-1.668l-0.952,0.276Z" style="fill:#808285;fill-rule:nonzero;"/><path d="M158.78,33.36l1.982,5.352c0.045,0.132 0.067,0.216 0.067,0.276c0,0.06 -0.034,0.144 -0.078,0.252c-0.221,0.54 -0.553,0.948 -0.819,1.176c-0.288,0.264 -0.609,0.432 -0.853,0.516l0.244,0.888c0.243,-0.048 0.719,-0.228 1.196,-0.684c0.664,-0.624 1.14,-1.644 1.838,-3.636l1.461,-4.14l-1.029,0l-1.063,3.408c-0.133,0.42 -0.244,0.864 -0.344,1.212l-0.022,0c-0.088,-0.348 -0.221,-0.804 -0.343,-1.188l-1.174,-3.432l-1.063,0Z" style="fill:#808285;fill-rule:nonzero;"/></g></g></g><defs><linearGradient id="_Linear1" x1="0" y1="0" x2="1" y2="0" gradientUnits="userSpaceOnUse" gradientTransform="matrix(42.403,0,0,42.403,2.06985,20.3491)"><stop offset="0" style="stop-color:#eb7646;stop-opacity:1"/><stop offset="1" style="stop-color:#f1a548;stop-opacity:1"/></linearGradient><linearGradient id="_Linear2" x1="0" y1="0" x2="1" y2="0" gradientUnits="userSpaceOnUse" gradientTransform="matrix(42.403,0,0,42.403,2.06985,24.5591)"><stop offset="0" style="stop-color:#eb7646;stop-opacity:1"/><stop offset="1" style="stop-color:#f1a548;stop-opacity:1"/></linearGradient></defs></svg>