<?xml version="1.0" encoding="UTF-8" standalone="no"?><!DOCTYPE svg PUBLIC "-//W3C//DTD SVG 1.1//EN" "http://www.w3.org/Graphics/SVG/1.1/DTD/svg11.dtd"><svg width="100%" height="100%" viewBox="0 0 165 43" version="1.1" xmlns="http://www.w3.org/2000/svg" xmlns:xlink="http://www.w3.org/1999/xlink" xml:space="preserve" xmlns:serif="http://www.serif.com/" style="fill-rule:evenodd;clip-rule:evenodd;stroke-linejoin:round;stroke-miterlimit:1.41421;"><g><path d="M11.886,1.925c-8.88,4.11 -13.543,13.574 -11.348,23.033c1.608,6.928 8.687,14.347 13.771,14.245l0,-18.015l2.08,0l0,15.099c0,4.412 0.001,4.413 4.485,4.113c0.16,-0.01 0.316,-0.081 0.721,-0.191l0,-19.153c0.849,0.044 1.439,0.073 2.169,0.11l0,18.96c4.549,-0.849 8.212,-2.845 10.933,-5.859c-1.2,-1.316 -2.243,-2.459 -3.286,-3.602c-0.729,0.564 -1.485,1.147 -2.594,2.006l0,-16.65l-19.63,0l0,7.194l0,7.218c-5.185,-4.757 -5.451,-13.783 -0.853,-19.55c2.455,-3.078 5.654,-4.995 9.536,-5.547c5.301,-0.754 9.852,0.943 13.537,4.714c1.218,-1.19 2.328,-2.275 3.43,-3.353c-3.078,-4.159 -8.875,-6.51 -14.709,-6.51c-2.842,0 -5.694,0.558 -8.242,1.738Z" style="fill:url(#_Linear1);fill-rule:nonzero;"/><path d="M32.854,15.047c-1.165,0.776 -2.236,1.92 -3.212,3.433l3.734,2.211c1.175,-1.871 2.42,-2.807 3.734,-2.807c0.716,0 1.304,0.234 1.762,0.701c0.458,0.469 0.687,1.051 0.687,1.747c0,0.697 -0.265,1.419 -0.792,2.166c-0.526,0.747 -1.408,1.748 -2.642,3.002l-6.124,6.273l0,3.464l14.726,0l0,-4.181l-8.244,0l3.763,-3.913c1.473,-1.533 2.484,-2.792 3.032,-3.779c0.548,-0.985 0.822,-2.016 0.822,-3.091c0,-1.971 -0.682,-3.529 -2.047,-4.674c-1.364,-1.145 -2.947,-1.718 -4.749,-1.718c-1.801,0 -3.285,0.389 -4.45,1.166Z" style="fill:url(#_Linear2);fill-rule:nonzero;"/><g transform="matrix(1.3109,0,0,1.42066,-315.578,-257.059)"><text x="286.961px" y="197.255px" style="font-family:'NotoSansCJKjp-Bold', 'Noto Sans CJK JP', sans-serif;font-weight:700;font-size:14.078px;fill:#58595b;">房 <tspan x="305.545px 319.623px 324.129px 338.207px 342.713px " y="197.255px 197.255px 197.255px 197.255px 197.255px ">產 平 台</tspan></text><text x="286.961px" y="208.514px" style="font-family:'MyriadPro-Regular', 'Myriad Pro', sans-serif;font-size:8.447px;fill:#808285;">T</text><text x="291.053px" y="208.514px" style="font-family:'MyriadPro-Regular', 'Myriad Pro', sans-serif;font-size:8.447px;fill:#808285;">he</text><text x="301.764px" y="208.514px" style="font-family:'MyriadPro-Regular', 'Myriad Pro', sans-serif;font-size:8.447px;fill:#808285;">F</text><text x="305.613px" y="208.514px" style="font-family:'MyriadPro-Regular', 'Myriad Pro', sans-serif;font-size:8.447px;fill:#808285;">utu</text><text x="317.718px" y="208.514px" style="font-family:'MyriadPro-Regular', 'Myriad Pro', sans-serif;font-size:8.447px;fill:#808285;">r</text><text x="320.374px" y="208.514px" style="font-family:'MyriadPro-Regular', 'Myriad Pro', sans-serif;font-size:8.447px;fill:#808285;">e of</text><text x="335.291px" y="208.514px" style="font-family:'MyriadPro-Regular', 'Myriad Pro', sans-serif;font-size:8.447px;fill:#808285;">P<tspan x="339.679px " y="208.514px ">r</tspan></text><text x="342.336px" y="208.514px" style="font-family:'MyriadPro-Regular', 'Myriad Pro', sans-serif;font-size:8.447px;fill:#808285;">ope</text><text x="356.011px" y="208.514px" style="font-family:'MyriadPro-Regular', 'Myriad Pro', sans-serif;font-size:8.447px;fill:#808285;">r</text><text x="358.984px" y="208.514px" style="font-family:'MyriadPro-Regular', 'Myriad Pro', sans-serif;font-size:8.447px;fill:#808285;">ty</text></g></g><defs><linearGradient id="_Linear1" x1="0" y1="0" x2="1" y2="0" gradientUnits="userSpaceOnUse" gradientTransform="matrix(42.403,0,0,42.403,2.06985,20.3491)"><stop offset="0" style="stop-color:#eb7646;stop-opacity:1"/><stop offset="1" style="stop-color:#f1a548;stop-opacity:1"/></linearGradient><linearGradient id="_Linear2" x1="0" y1="0" x2="1" y2="0" gradientUnits="userSpaceOnUse" gradientTransform="matrix(42.403,0,0,42.403,2.06985,24.5591)"><stop offset="0" style="stop-color:#eb7646;stop-opacity:1"/><stop offset="1" style="stop-color:#f1a548;stop-opacity:1"/></linearGradient></defs></svg>