<?xml version="1.0" encoding="UTF-8" standalone="no"?><!DOCTYPE svg PUBLIC "-//W3C//DTD SVG 1.1//EN" "http://www.w3.org/Graphics/SVG/1.1/DTD/svg11.dtd"><svg width="100%" height="100%" viewBox="0 0 50 44" version="1.1" xmlns="http://www.w3.org/2000/svg" xmlns:xlink="http://www.w3.org/1999/xlink" xml:space="preserve" xmlns:serif="http://www.serif.com/" style="fill-rule:evenodd;clip-rule:evenodd;stroke-linejoin:round;stroke-miterlimit:1.41421;"><g><path d="M42.353,14.798c-0.06,-3.017 -1.062,-12.47 -11.182,-13.729c-7.908,-0.807 -11.654,4.688 -12.969,7.292c-1.58,-0.849 -4.093,-1.378 -6.857,0.222c-2.929,1.809 -3.397,4.658 -3.422,6.166c-3.082,0.945 -7.678,3.941 -7.678,10.233c0.156,7.052 6.26,8.974 9.466,9.005l0.012,0c0.597,0 1.083,-0.481 1.091,-1.079c0.008,-0.603 -0.476,-1.096 -1.078,-1.106c-0.292,-0.004 -7.158,-0.184 -7.306,-6.844c0,-6.849 6.561,-8.243 6.836,-8.298l1.022,-0.204l-0.15,-1.031c-0.018,-0.132 -0.437,-3.258 2.328,-4.966c3.094,-1.793 5.352,0.262 5.442,0.346l1.249,1.196l0.546,-1.641c0.108,-0.327 2.764,-7.981 11.223,-7.121c9.906,1.234 9.268,11.869 9.236,12.319l-0.072,0.959l0.943,0.193c0.284,0.057 6.932,1.497 6.516,8.604c-0.943,6.382 -7.354,6.487 -7.628,6.488c-0.601,0.001 -1.089,0.489 -1.089,1.092c-0.001,0.606 0.479,1.099 1.099,1.093c2.974,0 8.834,-1.756 9.788,-8.405l0.009,-0.087c0.41,-6.567 -4.234,-9.714 -7.375,-10.697" style="fill:#305768;fill-rule:nonzero;"/><path d="M37.133,23.726l-3.461,3.46l-3.617,0l0,-3.673l3.418,-3.417c-0.505,-0.151 -1.027,-0.258 -1.583,-0.259c-3.042,0 -5.51,2.47 -5.51,5.514c0,0.848 0.207,1.642 0.552,2.362l-11.037,11.034c-0.331,0.334 -0.538,0.792 -0.538,1.303c0,1.011 0.82,1.837 1.838,1.835c0.508,0.002 0.968,-0.204 1.297,-0.536l11.039,-11.038c0.718,0.341 1.514,0.55 2.36,0.551c3.046,-0.001 5.511,-2.47 5.512,-5.511c-0.001,-0.569 -0.109,-1.109 -0.27,-1.625" style="fill:#305768;fill-rule:nonzero;"/><path d="M34.73,39.718c0.405,0.405 0.405,1.069 0,1.474l-1.517,1.516c-0.405,0.406 -1.069,0.406 -1.474,0l-5.188,-5.188c-0.406,-0.406 -0.406,-1.069 -0.001,-1.474l1.518,-1.518c0.405,-0.405 1.069,-0.405 1.474,0l5.188,5.19Z" style="fill:#0085bf;fill-rule:nonzero;"/></g></svg>