<?xml version="1.0" encoding="UTF-8" standalone="no"?><!DOCTYPE svg PUBLIC "-//W3C//DTD SVG 1.1//EN" "http://www.w3.org/Graphics/SVG/1.1/DTD/svg11.dtd"><svg width="100%" height="100%" viewBox="0 0 38 40" version="1.1" xmlns="http://www.w3.org/2000/svg" xmlns:xlink="http://www.w3.org/1999/xlink" xml:space="preserve" xmlns:serif="http://www.serif.com/" style="fill-rule:evenodd;clip-rule:evenodd;stroke-linejoin:round;stroke-miterlimit:1.41421;"><g><path d="M19,28.359c-2.275,-2.639 -8.358,-10.344 -8.358,-17.302c0,-4.609 3.75,-8.358 8.358,-8.358c4.608,0 8.358,3.749 8.358,8.358c0,6.958 -6.082,14.663 -8.358,17.302m0,-28c-5.898,0 -10.697,4.8 -10.697,10.698c0,9.459 9.45,19.444 9.851,19.865l0.846,0.883l0.846,-0.883c0.401,-0.421 9.851,-10.406 9.851,-19.865c0,-5.898 -4.799,-10.698 -10.697,-10.698" style="fill:#305768;fill-rule:nonzero;"/><path d="M34.245,28.208l-2.858,0l1.587,7.622l-27.948,0l1.588,-7.622l-2.857,0l-2.608,7.816c-0.661,1.99 0.511,3.617 2.608,3.617l30.488,0c2.096,0 3.269,-1.627 2.604,-3.617l-2.604,-7.816Z" style="fill:#305768;fill-rule:nonzero;"/><path d="M19,15.146c-2.191,0 -3.975,-1.783 -3.975,-3.975c0,-2.191 1.784,-3.973 3.975,-3.973c2.192,0 3.976,1.782 3.976,3.973c0,2.192 -1.784,3.975 -3.976,3.975m0,-10.288c-3.481,0 -6.314,2.832 -6.314,6.313c0,3.482 2.833,6.315 6.314,6.315c3.482,0 6.315,-2.833 6.315,-6.315c0,-3.481 -2.833,-6.313 -6.315,-6.313" style="fill:#0085bf;fill-rule:nonzero;"/></g></svg>