<?xml version="1.0" encoding="UTF-8" standalone="no"?><!DOCTYPE svg PUBLIC "-//W3C//DTD SVG 1.1//EN" "http://www.w3.org/Graphics/SVG/1.1/DTD/svg11.dtd"><svg width="100%" height="100%" viewBox="0 0 44 37" version="1.1" xmlns="http://www.w3.org/2000/svg" xmlns:xlink="http://www.w3.org/1999/xlink" xml:space="preserve" xmlns:serif="http://www.serif.com/" style="fill-rule:evenodd;clip-rule:evenodd;stroke-linejoin:round;stroke-miterlimit:1.41421;"><g><path d="M22.244,21.985l-12.621,0c-5.048,0 -9.015,3.966 -9.015,9.015l0,3.605c0,1.081 0.722,1.803 1.804,1.803c1.081,0 1.801,-0.722 1.801,-1.803l0,-3.605c0,-3.065 2.344,-5.409 5.41,-5.409l12.621,0c3.064,0 5.408,2.344 5.408,5.409l0,3.605c0,1.081 0.721,1.803 1.804,1.803c1.08,0 1.802,-0.722 1.802,-1.803l0,-3.605c0,-5.049 -3.966,-9.015 -9.014,-9.015" style="fill:#305768;fill-rule:nonzero;"/><path d="M15.934,3.955c3.064,0 5.409,2.344 5.409,5.409c0,3.065 -2.345,5.408 -5.409,5.408c-3.064,0 -5.409,-2.343 -5.409,-5.408c0,-3.065 2.345,-5.409 5.409,-5.409m0,14.423c5.048,0 9.014,-3.966 9.014,-9.014c0,-5.049 -3.966,-9.015 -9.014,-9.015c-5.048,0 -9.016,3.966 -9.016,9.015c0,5.048 3.968,9.014 9.016,9.014" style="fill:#305768;fill-rule:nonzero;"/><path d="M43.339,11.708c-0.723,-0.722 -1.804,-0.722 -2.525,0l-5.95,5.949l-2.343,-2.344c-0.721,-0.721 -1.804,-0.721 -2.525,0c-0.721,0.722 -0.721,1.803 0,2.524l3.606,3.606c0.36,0.361 0.902,0.541 1.262,0.541c0.362,0 0.901,-0.18 1.262,-0.541l7.213,-7.211c0.72,-0.722 0.72,-1.803 0,-2.524" style="fill:#0085bf;fill-rule:nonzero;"/></g></svg>