<?xml version="1.0" encoding="utf-8"?>
<!-- Generator: Adobe Illustrator 22.1.0, SVG Export Plug-In . SVG Version: 6.00 Build 0)  -->
<svg version="1.1" id="圖層_1" xmlns:serif="http://www.serif.com/"
	 xmlns="http://www.w3.org/2000/svg" xmlns:xlink="http://www.w3.org/1999/xlink" x="0px" y="0px" viewBox="0 0 60 15.5"
	 style="enable-background:new 0 0 60 15.5;" xml:space="preserve">
<style type="text/css">
	.st0{fill:url(#SVGID_1_);}
	.st1{fill:url(#SVGID_2_);}
	.st2{enable-background:new    ;}
	.st3{fill:#58595B;}
	.st4{fill:#808285;}
</style>
<g>
	
		<linearGradient id="SVGID_1_" gradientUnits="userSpaceOnUse" x1="0" y1="38" x2="1" y2="38" gradientTransform="matrix(15.4193 0 0 -15.4193 0.7527 593.5139)">
		<stop  offset="0" style="stop-color:#EB7646"/>
		<stop  offset="1" style="stop-color:#F1A548"/>
	</linearGradient>
	<path class="st0" d="M4.3,0.9C1.1,2.4-0.6,5.8,0.2,9.3c0.6,2.5,3.2,5.2,5,5.2V7.9H6v5.5C6,15,6,15,7.6,14.9c0.1,0,0.1,0,0.3-0.1v-7
		c0.3,0,0.5,0,0.8,0v6.9c1.7-0.3,3-1,4-2.1c-0.4-0.5-0.8-0.9-1.2-1.3c-0.3,0.2-0.5,0.4-0.9,0.7V6H3.3v2.6v2.6c-1.9-1.7-2-5-0.3-7.1
		c0.9-1.1,2.1-1.8,3.5-2c1.9-0.3,3.6,0.3,4.9,1.7c0.4-0.4,0.8-0.8,1.2-1.2c-1.1-1.5-3.2-2.4-5.3-2.4C6.3,0.2,5.2,0.5,4.3,0.9z"/>
	
		<linearGradient id="SVGID_2_" gradientUnits="userSpaceOnUse" x1="0" y1="38" x2="1" y2="38" gradientTransform="matrix(15.4193 0 0 -15.4193 0.7527 595.0448)">
		<stop  offset="0" style="stop-color:#EB7646"/>
		<stop  offset="1" style="stop-color:#F1A548"/>
	</linearGradient>
	<path class="st1" d="M11.9,5.7c-0.4,0.3-0.8,0.7-1.2,1.2l1.4,0.8c0.4-0.7,0.9-1,1.4-1c0.3,0,0.5,0.1,0.6,0.3
		c0.2,0.2,0.2,0.4,0.2,0.6c0,0.3-0.1,0.5-0.3,0.8c-0.2,0.3-0.5,0.6-1,1.1l-2.2,2.3V13h5.4v-1.5h-3l1.4-1.4c0.5-0.6,0.9-1,1.1-1.4
		C15.9,8.3,16,7.9,16,7.6c0-0.7-0.2-1.3-0.7-1.7c-0.5-0.4-1.1-0.6-1.7-0.6C12.9,5.2,12.4,5.4,11.9,5.7z"/>
	<g transform="matrix(1.3109,0,0,1.42066,-315.578,-257.059)">
		<g class="st2">
			<path class="st3" d="M260.4,185.8c0,0.1,0,0.1,0,0.2h1.6c0,0,0,0.2,0,0.2c0,0.6-0.1,0.9-0.2,1c-0.1,0.1-0.3,0.2-0.5,0.2
				c-0.2,0-0.4,0-0.7,0c0-0.2-0.1-0.4-0.2-0.6c0.2,0,0.4,0,0.5,0c0.1,0,0.1,0,0.2,0c0,0,0.1-0.1,0.1-0.3h-1
				c-0.2,0.4-0.6,0.7-1.3,0.9c-0.1-0.1-0.2-0.4-0.3-0.5c-0.1,0.2-0.2,0.4-0.4,0.6c-0.1-0.1-0.4-0.5-0.5-0.6c0.6-0.6,0.6-1.6,0.6-2.3
				V183h0c1.2-0.1,2.5-0.2,3.3-0.4l0.6,0.5c-0.9,0.2-2.1,0.3-3.1,0.4v0.1h3.2v1.3h-1.3c0,0.1,0.1,0.2,0.1,0.3h1.5v0.6H260.4z
				 M258.9,185.8c-0.1,0.4-0.1,0.7-0.3,1.1c0.8-0.2,1-0.6,1-1.1H258.9z M260.1,185.2c0-0.1,0-0.1-0.1-0.2l0.5-0.1H259
				c0,0.1,0,0.2,0,0.3H260.1z M259,184.2v0.2h2.4v-0.2H259z"/>
		</g>
		<g class="st2">
			<path class="st3" d="M269.3,186.8v0.6h-3.8v-0.6h1.5v-0.2h-1v-0.3c-0.1,0.1-0.2,0.2-0.3,0.3c0-0.1-0.2-0.4-0.3-0.6
				c-0.1,0.5-0.2,1.1-0.5,1.5c-0.1-0.1-0.4-0.4-0.6-0.5c0.4-0.5,0.5-1.3,0.5-1.8v-0.8h0.7c-0.1-0.1-0.2-0.2-0.3-0.3
				c0.3,0,0.7-0.1,1.1-0.2c-0.3-0.1-0.6-0.1-0.8-0.2l0.3-0.2h-0.9V183h1.7c0-0.1-0.1-0.1-0.1-0.2l0.5-0.2c0.1,0.1,0.2,0.3,0.3,0.4
				h1.8v0.6h-0.7l0.3,0.2c-0.2,0.1-0.3,0.1-0.5,0.2c0.3,0.1,0.5,0.1,0.7,0.2l-0.3,0.3h0.8v0.6h-3.7v0.2c0,0.2,0,0.4,0,0.6
				c0.2-0.2,0.4-0.5,0.5-0.8l0.6,0.2c0,0,0,0.1-0.1,0.1h0.4v-0.3h0.7v0.3h1.2v0.6h-1.2v0.2h1v0.6h-1v0.2H269.3z M267,186.1v-0.2
				h-0.7c0,0.1-0.1,0.1-0.1,0.2H267z M268,184.4c-0.2-0.1-0.5-0.1-0.7-0.2c-0.3,0.1-0.6,0.1-0.9,0.2H268z M266.5,183.6
				c0.3,0.1,0.5,0.1,0.8,0.2c0.2-0.1,0.4-0.1,0.6-0.2H266.5z"/>
		</g>
		<g class="st2">
			<path class="st3" d="M276,185.8h-2v1.6h-0.8v-1.6h-2v-0.8h2v-1.4h-1.7v-0.7h4.1v0.7H274v1.4h2V185.8z M272.5,183.8
				c0.2,0.3,0.3,0.7,0.4,1l-0.7,0.2c0-0.3-0.2-0.7-0.3-1L272.5,183.8z M274.3,184.8c0.1-0.3,0.3-0.7,0.4-1l0.8,0.2
				c-0.2,0.4-0.4,0.8-0.5,1L274.3,184.8z"/>
		</g>
		<g class="st2">
			<path class="st3" d="M282,185c-0.1-0.1-0.1-0.2-0.2-0.4c-2.6,0.1-3,0.1-3.3,0.2c0-0.1-0.2-0.5-0.2-0.7c0.2,0,0.3-0.1,0.4-0.3
				c0.2-0.2,0.7-0.8,1-1.4l0.8,0.3c-0.3,0.4-0.7,0.8-1,1.2l1.8,0c-0.2-0.2-0.3-0.4-0.5-0.6l0.6-0.4c0.5,0.4,1.1,1.1,1.3,1.5L282,185
				z M278.6,185.2h3.6v2.3h-0.8v-0.3h-2v0.3h-0.8V185.2z M279.4,185.9v0.6h2v-0.6H279.4z"/>
		</g>
		<g class="st2">
			<path class="st4" d="M258.2,189.3h-0.6V189h1.5v0.2h-0.6v1.8h-0.3V189.3z"/>
		</g>
		<g class="st2">
			<path class="st4" d="M259.3,188.9h0.3v0.9h0c0-0.1,0.1-0.1,0.2-0.2c0.1,0,0.2-0.1,0.3-0.1c0.2,0,0.5,0.1,0.5,0.6v0.9h-0.3v-0.9
				c0-0.2-0.1-0.4-0.3-0.4c-0.2,0-0.3,0.1-0.4,0.3c0,0,0,0.1,0,0.1v0.9h-0.3V188.9z"/>
			<path class="st4" d="M261.1,190.4c0,0.4,0.2,0.5,0.5,0.5c0.2,0,0.3,0,0.4-0.1l0,0.2c-0.1,0-0.3,0.1-0.5,0.1
				c-0.5,0-0.7-0.3-0.7-0.7c0-0.4,0.3-0.8,0.7-0.8c0.5,0,0.6,0.4,0.6,0.7c0,0.1,0,0.1,0,0.1H261.1z M261.9,190.2
				c0-0.2-0.1-0.4-0.4-0.4c-0.3,0-0.4,0.3-0.4,0.4H261.9z"/>
		</g>
		<g class="st2">
			<path class="st4" d="M263.2,189h1.1v0.2h-0.8v0.7h0.8v0.2h-0.8v0.9h-0.3V189z"/>
		</g>
		<g class="st2">
			<path class="st4" d="M265.8,190.7c0,0.2,0,0.3,0,0.4h-0.2l0-0.2h0c-0.1,0.1-0.2,0.3-0.5,0.3c-0.2,0-0.5-0.1-0.5-0.7v-0.9h0.3v0.8
				c0,0.3,0.1,0.5,0.3,0.5c0.2,0,0.3-0.1,0.4-0.2c0,0,0-0.1,0-0.1v-0.9h0.3V190.7z"/>
			<path class="st4" d="M266.6,189.2v0.4h0.4v0.2h-0.4v0.8c0,0.2,0.1,0.3,0.2,0.3c0.1,0,0.1,0,0.2,0l0,0.2c-0.1,0-0.1,0-0.2,0
				c-0.1,0-0.2,0-0.3-0.1c-0.1-0.1-0.1-0.2-0.1-0.4v-0.8h-0.2v-0.2h0.2v-0.4L266.6,189.2z"/>
			<path class="st4" d="M268.5,190.7c0,0.2,0,0.3,0,0.4h-0.2l0-0.2h0c-0.1,0.1-0.2,0.3-0.5,0.3c-0.2,0-0.5-0.1-0.5-0.7v-0.9h0.3v0.8
				c0,0.3,0.1,0.5,0.3,0.5c0.2,0,0.3-0.1,0.4-0.2c0,0,0-0.1,0-0.1v-0.9h0.3V190.7z"/>
		</g>
		<g class="st2">
			<path class="st4" d="M269,190.1c0-0.2,0-0.3,0-0.5h0.2l0,0.3h0c0.1-0.2,0.2-0.3,0.4-0.3c0,0,0.1,0,0.1,0v0.3c0,0-0.1,0-0.1,0
				c-0.2,0-0.3,0.1-0.4,0.3c0,0,0,0.1,0,0.1v0.8H269V190.1z"/>
		</g>
		<g class="st2">
			<path class="st4" d="M270.1,190.4c0,0.4,0.2,0.5,0.5,0.5c0.2,0,0.3,0,0.4-0.1l0,0.2c-0.1,0-0.3,0.1-0.5,0.1
				c-0.5,0-0.7-0.3-0.7-0.7c0-0.4,0.3-0.8,0.7-0.8c0.5,0,0.6,0.4,0.6,0.7c0,0.1,0,0.1,0,0.1H270.1z M270.9,190.2
				c0-0.2-0.1-0.4-0.4-0.4c-0.3,0-0.4,0.3-0.4,0.4H270.9z"/>
			<path class="st4" d="M273.5,190.3c0,0.5-0.4,0.8-0.7,0.8c-0.4,0-0.7-0.3-0.7-0.8c0-0.5,0.3-0.8,0.7-0.8
				C273.2,189.6,273.5,189.9,273.5,190.3z M272.3,190.4c0,0.3,0.2,0.6,0.5,0.6c0.3,0,0.5-0.2,0.5-0.6c0-0.3-0.1-0.6-0.4-0.6
				C272.4,189.8,272.3,190.1,272.3,190.4z"/>
			<path class="st4" d="M273.8,191.1v-1.3h-0.2v-0.2h0.2v-0.1c0-0.2,0-0.4,0.2-0.5c0.1-0.1,0.2-0.1,0.4-0.1c0.1,0,0.2,0,0.2,0l0,0.2
				c0,0-0.1,0-0.2,0c-0.2,0-0.3,0.2-0.3,0.4v0.1h0.4v0.2h-0.4v1.3H273.8z"/>
		</g>
		<g class="st2">
			<path class="st4" d="M275.4,189.1c0.1,0,0.3,0,0.5,0c0.3,0,0.5,0.1,0.6,0.2c0.1,0.1,0.2,0.2,0.2,0.4c0,0.2-0.1,0.3-0.2,0.4
				c-0.1,0.2-0.4,0.2-0.6,0.2c-0.1,0-0.2,0-0.2,0v0.8h-0.3V189.1z M275.6,190c0.1,0,0.1,0,0.2,0c0.3,0,0.5-0.2,0.5-0.4
				c0-0.3-0.2-0.4-0.5-0.4c-0.1,0-0.2,0-0.3,0V190z"/>
		</g>
		<g class="st2">
			<path class="st4" d="M276.9,190.1c0-0.2,0-0.3,0-0.5h0.2l0,0.3h0c0.1-0.2,0.2-0.3,0.4-0.3c0,0,0.1,0,0.1,0v0.3c0,0-0.1,0-0.1,0
				c-0.2,0-0.3,0.1-0.4,0.3c0,0,0,0.1,0,0.1v0.8h-0.3V190.1z"/>
		</g>
		<g class="st2">
			<path class="st4" d="M279.3,190.3c0,0.5-0.4,0.8-0.7,0.8c-0.4,0-0.7-0.3-0.7-0.8c0-0.5,0.3-0.8,0.7-0.8
				C279,189.6,279.3,189.9,279.3,190.3z M278.1,190.4c0,0.3,0.2,0.6,0.5,0.6c0.3,0,0.5-0.2,0.5-0.6c0-0.3-0.1-0.6-0.4-0.6
				C278.2,189.8,278.1,190.1,278.1,190.4z"/>
			<path class="st4" d="M279.6,190.1c0-0.2,0-0.3,0-0.5h0.2l0,0.3h0c0.1-0.2,0.3-0.3,0.5-0.3c0.4,0,0.6,0.3,0.6,0.8
				c0,0.5-0.3,0.8-0.7,0.8c-0.2,0-0.4-0.1-0.5-0.2h0v0.8h-0.3V190.1z M279.9,190.5c0,0,0,0.1,0,0.1c0,0.2,0.2,0.3,0.4,0.3
				c0.3,0,0.5-0.2,0.5-0.6c0-0.3-0.2-0.6-0.4-0.6c-0.2,0-0.4,0.1-0.4,0.3c0,0,0,0.1,0,0.1V190.5z"/>
			<path class="st4" d="M281.5,190.4c0,0.4,0.2,0.5,0.5,0.5c0.2,0,0.3,0,0.4-0.1l0,0.2c-0.1,0-0.3,0.1-0.5,0.1
				c-0.5,0-0.7-0.3-0.7-0.7c0-0.4,0.3-0.8,0.7-0.8c0.5,0,0.6,0.4,0.6,0.7c0,0.1,0,0.1,0,0.1H281.5z M282.3,190.2
				c0-0.2-0.1-0.4-0.4-0.4c-0.3,0-0.4,0.3-0.4,0.4H282.3z"/>
		</g>
		<g class="st2">
			<path class="st4" d="M282.9,190.1c0-0.2,0-0.3,0-0.5h0.2l0,0.3h0c0.1-0.2,0.2-0.3,0.4-0.3c0,0,0.1,0,0.1,0v0.3c0,0-0.1,0-0.1,0
				c-0.2,0-0.3,0.1-0.4,0.3c0,0,0,0.1,0,0.1v0.8h-0.3V190.1z"/>
		</g>
		<g class="st2">
			<path class="st4" d="M284.3,189.2v0.4h0.4v0.2h-0.4v0.8c0,0.2,0.1,0.3,0.2,0.3c0.1,0,0.1,0,0.2,0l0,0.2c-0.1,0-0.1,0-0.2,0
				c-0.1,0-0.2,0-0.3-0.1c-0.1-0.1-0.1-0.2-0.1-0.4v-0.8h-0.2v-0.2h0.2v-0.4L284.3,189.2z"/>
			<path class="st4" d="M285.1,189.6l0.3,0.9c0,0.1,0.1,0.2,0.1,0.3h0c0-0.1,0.1-0.2,0.1-0.3l0.3-0.9h0.3l-0.4,1.1
				c-0.2,0.5-0.3,0.8-0.5,0.9c-0.1,0.1-0.3,0.2-0.3,0.2l-0.1-0.2c0.1,0,0.2-0.1,0.2-0.1c0.1-0.1,0.2-0.2,0.2-0.3c0,0,0,0,0-0.1
				c0,0,0,0,0-0.1l-0.6-1.4H285.1z"/>
		</g>
	</g>
</g>
</svg>
